<svg id="visual" viewBox="0 0 960 540" width="960" height="540" xmlns="http://www.w3.org/2000/svg" xmlns:xlink="http://www.w3.org/1999/xlink" version="1.1"><path d="M0 276L32 282C64 288 128 300 192 297.3C256 294.7 320 277.3 384 277.3C448 277.3 512 294.7 576 294.3C640 294 704 276 768 270C832 264 896 270 928 273L960 276L960 0L928 0C896 0 832 0 768 0C704 0 640 0 576 0C512 0 448 0 384 0C320 0 256 0 192 0C128 0 64 0 32 0L0 0Z" fill="#130050" stroke-linecap="round" stroke-linejoin="miter"></path></svg>